<svg width="1203" height="524" viewBox="0 0 1203 524" fill="none" xmlns="http://www.w3.org/2000/svg">
<path d="M1147.66 317.417H1197.1C1200.92 317.417 1202.83 319.328 1202.83 323.15V392.652C1202.83 396.473 1200.92 398.384 1197.1 398.384H1147.66V507.295C1147.66 511.116 1145.75 513.027 1141.93 513.027H1044.48C1040.66 513.027 1038.75 511.116 1038.75 507.295V398.384H820.209C816.387 398.384 814.477 396.473 814.477 392.652V309.894C814.477 307.267 815.193 304.878 816.626 302.729L1001.13 14.6887C1002.56 12.0614 1004.83 10.7478 1007.94 10.7478H1141.93C1145.75 10.7478 1147.66 12.6585 1147.66 16.48V317.417ZM1042.33 90.2813L900.459 317.417H1038.75V191.31L1042.33 90.2813Z" fill="#111111"/>
<path d="M598.768 523.058C558.643 523.058 523.653 513.027 493.798 492.964C463.943 472.902 440.776 443.525 424.296 404.833C407.816 366.141 399.576 318.85 399.576 262.962C399.576 204.924 407.697 156.44 423.938 117.509C440.418 78.3393 463.585 48.9621 493.44 29.3772C523.295 9.79241 558.404 0 598.768 0C638.893 0 673.883 9.67299 703.738 29.019C733.832 48.365 757.119 77.5034 773.598 116.434C790.317 155.365 798.677 204.208 798.677 262.962C798.677 318.85 790.437 366.141 773.957 404.833C757.477 443.525 734.19 472.902 704.096 492.964C674.241 513.027 639.132 523.058 598.768 523.058ZM599.485 439.225C627.429 439.225 648.805 425.492 663.613 398.026C678.66 370.32 686.183 325.299 686.183 262.962C686.183 200.625 678.66 155.246 663.613 126.824C648.805 98.1629 627.19 83.8326 598.768 83.8326C570.107 83.8326 548.492 97.8047 533.923 125.749C519.354 153.693 512.069 199.431 512.069 262.962C512.069 324.821 519.593 369.723 534.64 397.667C549.926 425.373 571.54 439.225 599.485 439.225Z" fill="#111111"/>
<path d="M333.181 317.417H382.621C386.442 317.417 388.353 319.328 388.353 323.15V392.652C388.353 396.473 386.442 398.384 382.621 398.384H333.181V507.295C333.181 511.116 331.27 513.027 327.449 513.027H230.002C226.181 513.027 224.27 511.116 224.27 507.295V398.384H5.73214C1.91071 398.384 0 396.473 0 392.652V309.894C0 307.267 0.716518 304.878 2.14955 302.729L186.653 14.6887C188.086 12.0614 190.355 10.7478 193.46 10.7478H327.449C331.27 10.7478 333.181 12.6585 333.181 16.48V317.417ZM227.853 90.2813L85.9822 317.417H224.27V191.31L227.853 90.2813Z" fill="#111111"/>
</svg>
