<svg width="411" height="112" viewBox="0 0 411 112" fill="none" xmlns="http://www.w3.org/2000/svg">
<path d="M382.537 22.7363C388.638 22.7363 393.758 24.251 397.897 27.2803C402.036 30.3097 405.15 34.4057 407.241 39.5683C409.374 44.6883 410.441 50.4483 410.441 56.8483C410.441 63.2057 409.31 68.987 407.049 74.1923C404.83 79.3977 401.609 83.5577 397.385 86.6723C393.204 89.7443 388.169 91.2803 382.281 91.2803C373.577 91.2803 367.006 87.9737 362.569 81.3603L362.825 110.736C362.825 111.419 362.462 111.76 361.737 111.76H348.169C347.444 111.76 347.081 111.419 347.081 110.736L347.465 62.1603L347.081 25.1043C347.081 24.4217 347.444 24.0803 348.169 24.0803H361.545C362.313 24.0803 362.654 24.443 362.569 25.1683L362.249 33.5523C364.51 30.1817 367.348 27.5363 370.761 25.6163C374.174 23.6963 378.1 22.7363 382.537 22.7363ZM378.057 80.7843C381.812 80.7843 384.926 79.8457 387.401 77.9683C389.876 76.091 391.71 73.4457 392.905 70.0323C394.142 66.619 394.761 62.523 394.761 57.7443C394.761 52.7097 394.164 48.379 392.969 44.7523C391.774 41.083 389.961 38.267 387.529 36.3043C385.097 34.3417 382.046 33.3603 378.377 33.3603C373.257 33.3603 369.246 35.3017 366.345 39.1843C363.486 43.067 362.014 48.827 361.929 56.4643C361.886 64.187 363.252 70.1817 366.025 74.4483C368.841 78.6723 372.852 80.7843 378.057 80.7843Z" fill="white"/>
<path d="M313.912 22.7363C320.013 22.7363 325.133 24.251 329.272 27.2803C333.411 30.3097 336.525 34.4057 338.616 39.5683C340.749 44.6883 341.816 50.4483 341.816 56.8483C341.816 63.2057 340.685 68.987 338.424 74.1923C336.205 79.3977 332.984 83.5577 328.76 86.6723C324.579 89.7443 319.544 91.2803 313.656 91.2803C304.952 91.2803 298.381 87.9737 293.944 81.3603L294.2 110.736C294.2 111.419 293.837 111.76 293.112 111.76H279.544C278.819 111.76 278.456 111.419 278.456 110.736L278.84 62.1603L278.456 25.1043C278.456 24.4217 278.819 24.0803 279.544 24.0803H292.92C293.688 24.0803 294.029 24.443 293.944 25.1683L293.624 33.5523C295.885 30.1817 298.723 27.5363 302.136 25.6163C305.549 23.6963 309.475 22.7363 313.912 22.7363ZM309.432 80.7843C313.187 80.7843 316.301 79.8457 318.776 77.9683C321.251 76.091 323.085 73.4457 324.28 70.0323C325.517 66.619 326.136 62.523 326.136 57.7443C326.136 52.7097 325.539 48.379 324.344 44.7523C323.149 41.083 321.336 38.267 318.904 36.3043C316.472 34.3417 313.421 33.3603 309.752 33.3603C304.632 33.3603 300.621 35.3017 297.72 39.1843C294.861 43.067 293.389 48.827 293.304 56.4643C293.261 64.187 294.627 70.1817 297.4 74.4483C300.216 78.6723 304.227 80.7843 309.432 80.7843Z" fill="white"/>
<path d="M275.798 88.7844C276.054 89.5951 275.756 90.0004 274.902 90.0004H260.886C260.289 90.0004 259.905 89.7231 259.734 89.1684L251.67 65.0404H216.598L208.726 89.1684C208.598 89.7231 208.214 90.0004 207.574 90.0004H193.814C192.961 90.0004 192.662 89.5951 192.918 88.7844L223.894 1.23239C224.108 0.677724 224.492 0.400391 225.046 0.400391H244.118C244.716 0.400391 245.121 0.677724 245.334 1.23239L275.798 88.7844ZM233.878 11.0884L220.438 52.5604H247.638L233.878 11.0884Z" fill="white"/>
<path d="M139.993 91.536C133.081 91.536 127.193 90.128 122.329 87.312C117.465 84.496 113.753 80.5067 111.193 75.344C108.676 70.1813 107.417 64.1227 107.417 57.168C107.417 50.256 108.676 44.1973 111.193 38.992C113.753 33.7866 117.465 29.7546 122.329 26.896C127.193 23.9946 133.081 22.544 139.993 22.544C146.905 22.544 152.772 23.952 157.593 26.768C162.414 29.584 166.084 33.5733 168.601 38.736C171.118 43.8986 172.377 49.9573 172.377 56.912C172.377 63.8667 171.118 69.9467 168.601 75.152C166.084 80.3573 162.414 84.3893 157.593 87.248C152.772 90.1067 146.905 91.536 139.993 91.536ZM139.993 81.168C145.625 81.168 149.806 79.1627 152.537 75.152C155.268 71.1413 156.633 65.1467 156.633 57.168C156.633 49.3173 155.246 43.3226 152.473 39.184C149.7 35.0026 145.518 32.912 139.929 32.912C134.254 32.9546 130.03 35.0666 127.257 39.248C124.484 43.3866 123.097 49.4026 123.097 57.296C123.097 65.1893 124.505 71.1413 127.321 75.152C130.18 79.1627 134.404 81.168 139.993 81.168ZM159.705 14.992C159.705 15.7173 159.342 16.08 158.617 16.08H121.113C120.43 16.08 120.089 15.7173 120.089 14.992V6.60798C120.089 5.92532 120.43 5.58398 121.113 5.58398H158.617C159.342 5.58398 159.705 5.92532 159.705 6.60798V14.992Z" fill="white"/>
<path d="M22.7201 90.0004C22.0801 90.0004 21.6961 89.7017 21.5681 89.1044L0.0640497 1.55239C-0.0639503 0.784391 0.25605 0.400391 1.02405 0.400391H14.784C15.4241 0.400391 15.8081 0.699059 15.9361 1.29639L32.2561 73.0404L47.8081 1.29639C47.9787 0.699059 48.3841 0.400391 49.0241 0.400391H65.2161C65.8134 0.400391 66.1761 0.699059 66.3041 1.29639L82.4321 74.0004L98.6881 1.29639C98.8161 0.699059 99.2001 0.400391 99.8401 0.400391H112.576C113.387 0.400391 113.685 0.784391 113.472 1.55239L91.5841 89.1044C91.4134 89.7017 91.0294 90.0004 90.4321 90.0004H73.6001C72.9601 90.0004 72.5761 89.7017 72.4481 89.1044L56.3841 21.9044L41.2161 89.1044C41.0454 89.7017 40.6614 90.0004 40.0641 90.0004H22.7201Z" fill="white"/>
</svg>
